<?xml version="1.0" encoding="utf-8" standalone="no"?>
<!DOCTYPE svg PUBLIC "-//W3C//DTD SVG 1.1//EN"
  "http://www.w3.org/Graphics/SVG/1.1/DTD/svg11.dtd">
<svg xmlns:xlink="http://www.w3.org/1999/xlink" width="338.4pt" height="338.4pt" viewBox="0 0 338.4 338.4" xmlns="http://www.w3.org/2000/svg" version="1.1">
 <metadata>
  <rdf:RDF xmlns:dc="http://purl.org/dc/elements/1.1/" xmlns:cc="http://creativecommons.org/ns#" xmlns:rdf="http://www.w3.org/1999/02/22-rdf-syntax-ns#">
   <cc:Work>
    <dc:type rdf:resource="http://purl.org/dc/dcmitype/StillImage"/>
    <dc:date>2026-01-23T11:31:54.187695</dc:date>
    <dc:format>image/svg+xml</dc:format>
    <dc:creator>
     <cc:Agent>
      <dc:title>Matplotlib v3.9.2, https://matplotlib.org/</dc:title>
     </cc:Agent>
    </dc:creator>
   </cc:Work>
  </rdf:RDF>
 </metadata>
 <defs>
  <style type="text/css">*{stroke-linejoin: round; stroke-linecap: butt}</style>
 </defs>
 <g id="figure_1">
  <g id="patch_1">
   <path d="M 0 338.4 
L 338.4 338.4 
L 338.4 0 
L 0 0 
L 0 338.4 
z
" style="fill: none"/>
  </g>
  <g id="axes_1">
   <g id="PathCollection_1">
    <defs>
     <path id="m7e8b8e7e1d" d="M 0 6.708204 
C 1.779036 6.708204 3.485448 6.001385 4.743416 4.743416 
C 6.001385 3.485448 6.708204 1.779036 6.708204 0 
C 6.708204 -1.779036 6.001385 -3.485448 4.743416 -4.743416 
C 3.485448 -6.001385 1.779036 -6.708204 0 -6.708204 
C -1.779036 -6.708204 -3.485448 -6.001385 -4.743416 -4.743416 
C -6.001385 -3.485448 -6.708204 -1.779036 -6.708204 0 
C -6.708204 1.779036 -6.001385 3.485448 -4.743416 4.743416 
C -3.485448 6.001385 -1.779036 6.708204 0 6.708204 
z
" style="stroke: #000000; stroke-opacity: 0.9; stroke-width: 0.8"/>
    </defs>
    <g clip-path="url(#p5e3c7d2448)">
     <use xlink:href="#m7e8b8e7e1d" x="71.245313" y="113.047366" style="fill: #4169e1; fill-opacity: 0.9; stroke: #000000; stroke-opacity: 0.9; stroke-width: 0.8"/>
     <use xlink:href="#m7e8b8e7e1d" x="122.498689" y="134.983314" style="fill: #4169e1; fill-opacity: 0.9; stroke: #000000; stroke-opacity: 0.9; stroke-width: 0.8"/>
     <use xlink:href="#m7e8b8e7e1d" x="88.838338" y="74.162583" style="fill: #4169e1; fill-opacity: 0.9; stroke: #000000; stroke-opacity: 0.9; stroke-width: 0.8"/>
     <use xlink:href="#m7e8b8e7e1d" x="94.428978" y="116.383794" style="fill: #4169e1; fill-opacity: 0.9; stroke: #000000; stroke-opacity: 0.9; stroke-width: 0.8"/>
    </g>
   </g>
   <g id="patch_2">
    <path d="M 73.361306 153.533831 
C 90.227798 159.672732 108.184198 160.674786 123.275818 156.319304 
C 138.367439 151.963821 149.362115 142.606407 153.838397 130.307923 
C 158.314679 118.00944 155.907098 103.774003 147.145897 90.736803 
C 138.384695 77.699604 123.985186 66.92507 107.118694 60.786169 
C 90.252202 54.647268 72.295802 53.645214 57.204182 58.000696 
C 42.112561 62.356179 31.117885 71.713593 26.641603 84.012077 
C 22.165321 96.31056 24.572902 110.545997 33.334103 123.583197 
C 42.095305 136.620396 56.494814 147.39493 73.361306 153.533831 
L 73.361306 153.533831 
z
" clip-path="url(#p5e3c7d2448)" style="fill: none; opacity: 0.6; stroke-dasharray: 5.55,2.4; stroke-dashoffset: 0; stroke: #555555; stroke-width: 1.5; stroke-linejoin: miter"/>
   </g>
  </g>
 </g>
 <defs>
  <clipPath id="p5e3c7d2448">
   <rect x="0" y="0" width="338.4" height="338.4"/>
  </clipPath>
 </defs>
</svg>
