<?xml version="1.0" encoding="utf-8" standalone="no"?>
<!DOCTYPE svg PUBLIC "-//W3C//DTD SVG 1.1//EN"
  "http://www.w3.org/Graphics/SVG/1.1/DTD/svg11.dtd">
<svg xmlns:xlink="http://www.w3.org/1999/xlink" width="371.868132pt" height="338.4pt" viewBox="0 0 371.868132 338.4" xmlns="http://www.w3.org/2000/svg" version="1.1">
 <metadata>
  <rdf:RDF xmlns:dc="http://purl.org/dc/elements/1.1/" xmlns:cc="http://creativecommons.org/ns#" xmlns:rdf="http://www.w3.org/1999/02/22-rdf-syntax-ns#">
   <cc:Work>
    <dc:type rdf:resource="http://purl.org/dc/dcmitype/StillImage"/>
    <dc:date>2026-01-23T20:43:12.426867</dc:date>
    <dc:format>image/svg+xml</dc:format>
    <dc:creator>
     <cc:Agent>
      <dc:title>Matplotlib v3.9.2, https://matplotlib.org/</dc:title>
     </cc:Agent>
    </dc:creator>
   </cc:Work>
  </rdf:RDF>
 </metadata>
 <defs>
  <style type="text/css">*{stroke-linejoin: round; stroke-linecap: butt}</style>
 </defs>
 <g id="figure_1">
  <g id="patch_1">
   <path d="M 0 338.4 
L 371.868132 338.4 
L 371.868132 0 
L 0 0 
L 0 338.4 
z
" style="fill: none"/>
  </g>
  <g id="axes_1">
   <g id="PathCollection_1">
    <defs>
     <path id="m174a0a318a" d="M 0 4.743416 
C 1.257969 4.743416 2.464584 4.24362 3.354102 3.354102 
C 4.24362 2.464584 4.743416 1.257969 4.743416 0 
C 4.743416 -1.257969 4.24362 -2.464584 3.354102 -3.354102 
C 2.464584 -4.24362 1.257969 -4.743416 0 -4.743416 
C -1.257969 -4.743416 -2.464584 -4.24362 -3.354102 -3.354102 
C -4.24362 -2.464584 -4.743416 -1.257969 -4.743416 0 
C -4.743416 1.257969 -4.24362 2.464584 -3.354102 3.354102 
C -2.464584 4.24362 -1.257969 4.743416 0 4.743416 
z
" style="stroke: #000000; stroke-width: 0.5"/>
    </defs>
    <g clip-path="url(#p7e8e11a52d)">
     <use xlink:href="#m174a0a318a" x="45.32021" y="81.881063" style="fill: #cce4ff; stroke: #000000; stroke-width: 0.5"/>
     <use xlink:href="#m174a0a318a" x="53.056932" y="115.281053" style="fill: #cce4ff; stroke: #000000; stroke-width: 0.5"/>
     <use xlink:href="#m174a0a318a" x="95.600424" y="82.778734" style="fill: #cce4ff; stroke: #000000; stroke-width: 0.5"/>
     <use xlink:href="#m174a0a318a" x="106.620512" y="47.818944" style="fill: #cce4ff; stroke: #000000; stroke-width: 0.5"/>
    </g>
   </g>
   <g id="patch_2">
    <path d="M 81.810989 145.028571 
C 98.576488 145.028571 114.657572 138.367568 126.51257 126.51257 
C 138.367568 114.657572 145.028571 98.576488 145.028571 81.810989 
C 145.028571 65.04549 138.367568 48.964406 126.51257 37.109408 
C 114.657572 25.25441 98.576488 18.593407 81.810989 18.593407 
C 65.04549 18.593407 48.964406 25.25441 37.109408 37.109408 
C 25.25441 48.964406 18.593407 65.04549 18.593407 81.810989 
C 18.593407 98.576488 25.25441 114.657572 37.109408 126.51257 
C 48.964406 138.367568 65.04549 145.028571 81.810989 145.028571 
L 81.810989 145.028571 
z
" clip-path="url(#p7e8e11a52d)" style="fill: none; stroke-dasharray: 7.4,3.2; stroke-dashoffset: 0; stroke: #000000; stroke-width: 2; stroke-linejoin: miter"/>
   </g>
   <g id="PathCollection_2">
    <defs>
     <path id="ma4c481ef8e" d="M 0 -4.743416 
L -4.743416 4.743416 
L 4.743416 4.743416 
z
" style="stroke: #000000; stroke-width: 0.5"/>
    </defs>
    <g clip-path="url(#p7e8e11a52d)">
     <use xlink:href="#ma4c481ef8e" x="280.243129" y="82.194933" style="fill: #ffd700; stroke: #000000; stroke-width: 0.5"/>
     <use xlink:href="#ma4c481ef8e" x="325.572754" y="111.825725" style="fill: #ffd700; stroke: #000000; stroke-width: 0.5"/>
     <use xlink:href="#ma4c481ef8e" x="308.499121" y="50.982429" style="fill: #ffd700; stroke: #000000; stroke-width: 0.5"/>
     <use xlink:href="#ma4c481ef8e" x="258.923285" y="115.840568" style="fill: #ffd700; stroke: #000000; stroke-width: 0.5"/>
    </g>
   </g>
   <g id="patch_3">
    <path d="M 290.057143 145.028571 
C 306.822642 145.028571 322.903726 138.367568 334.758724 126.51257 
C 346.613722 114.657572 353.274725 98.576488 353.274725 81.810989 
C 353.274725 65.04549 346.613722 48.964406 334.758724 37.109408 
C 322.903726 25.25441 306.822642 18.593407 290.057143 18.593407 
C 273.291644 18.593407 257.21056 25.25441 245.355562 37.109408 
C 233.500564 48.964406 226.83956 65.04549 226.83956 81.810989 
C 226.83956 98.576488 233.500564 114.657572 245.355562 126.51257 
C 257.21056 138.367568 273.291644 145.028571 290.057143 145.028571 
L 290.057143 145.028571 
z
" clip-path="url(#p7e8e11a52d)" style="fill: none; stroke-dasharray: 7.4,3.2; stroke-dashoffset: 0; stroke: #000000; stroke-width: 2; stroke-linejoin: miter"/>
   </g>
   <g id="PathCollection_3">
    <defs>
     <path id="m40baa24a90" d="M 0 -4.743416 
L -4.511257 -1.465796 
L -2.78811 3.837505 
L 2.78811 3.837505 
L 4.511257 -1.465796 
z
" style="stroke: #000000; stroke-width: 0.5"/>
    </defs>
    <g clip-path="url(#p7e8e11a52d)">
     <use xlink:href="#m40baa24a90" x="170.82105" y="266.725867" style="fill: #3cb371; stroke: #000000; stroke-width: 0.5"/>
     <use xlink:href="#m40baa24a90" x="198.831541" y="251.226625" style="fill: #3cb371; stroke: #000000; stroke-width: 0.5"/>
     <use xlink:href="#m40baa24a90" x="154.74119" y="226.96367" style="fill: #3cb371; stroke: #000000; stroke-width: 0.5"/>
     <use xlink:href="#m40baa24a90" x="218.109234" y="293.171545" style="fill: #3cb371; stroke: #000000; stroke-width: 0.5"/>
    </g>
   </g>
   <g id="patch_4">
    <path d="M 185.934066 319.806593 
C 202.699565 319.806593 218.780649 313.14559 230.635647 301.290592 
C 242.490645 289.435594 249.151648 273.35451 249.151648 256.589011 
C 249.151648 239.823512 242.490645 223.742428 230.635647 211.88743 
C 218.780649 200.032432 202.699565 193.371429 185.934066 193.371429 
C 169.168567 193.371429 153.087483 200.032432 141.232485 211.88743 
C 129.377487 223.742428 122.716484 239.823512 122.716484 256.589011 
C 122.716484 273.35451 129.377487 289.435594 141.232485 301.290592 
C 153.087483 313.14559 169.168567 319.806593 185.934066 319.806593 
L 185.934066 319.806593 
z
" clip-path="url(#p7e8e11a52d)" style="fill: none; stroke-dasharray: 7.4,3.2; stroke-dashoffset: 0; stroke: #000000; stroke-width: 2; stroke-linejoin: miter"/>
   </g>
  </g>
 </g>
 <defs>
  <clipPath id="p7e8e11a52d">
   <rect x="0" y="0" width="371.868132" height="338.4"/>
  </clipPath>
 </defs>
</svg>
