<?xml version="1.0" encoding="utf-8" standalone="no"?>
<!DOCTYPE svg PUBLIC "-//W3C//DTD SVG 1.1//EN"
  "http://www.w3.org/Graphics/SVG/1.1/DTD/svg11.dtd">
<svg xmlns:xlink="http://www.w3.org/1999/xlink" width="79.2pt" height="33.507692pt" viewBox="0 0 79.2 33.507692" xmlns="http://www.w3.org/2000/svg" version="1.1">
 <metadata>
  <rdf:RDF xmlns:dc="http://purl.org/dc/elements/1.1/" xmlns:cc="http://creativecommons.org/ns#" xmlns:rdf="http://www.w3.org/1999/02/22-rdf-syntax-ns#">
   <cc:Work>
    <dc:type rdf:resource="http://purl.org/dc/dcmitype/StillImage"/>
    <dc:date>2026-01-23T20:15:02.099211</dc:date>
    <dc:format>image/svg+xml</dc:format>
    <dc:creator>
     <cc:Agent>
      <dc:title>Matplotlib v3.9.2, https://matplotlib.org/</dc:title>
     </cc:Agent>
    </dc:creator>
   </cc:Work>
  </rdf:RDF>
 </metadata>
 <defs>
  <style type="text/css">*{stroke-linejoin: round; stroke-linecap: butt}</style>
 </defs>
 <g id="figure_1">
  <g id="patch_1">
   <path d="M 0 33.507692 
L 79.2 33.507692 
L 79.2 0 
L 0 0 
L 0 33.507692 
z
" style="fill: none"/>
  </g>
  <g id="axes_1">
   <g id="PathCollection_1">
    <defs>
     <path id="m2679cdcdc9" d="M 0 1.5 
C 0.397805 1.5 0.77937 1.341951 1.06066 1.06066 
C 1.341951 0.77937 1.5 0.397805 1.5 0 
C 1.5 -0.397805 1.341951 -0.77937 1.06066 -1.06066 
C 0.77937 -1.341951 0.397805 -1.5 0 -1.5 
C -0.397805 -1.5 -0.77937 -1.341951 -1.06066 -1.06066 
C -1.341951 -0.77937 -1.5 -0.397805 -1.5 0 
C -1.5 0.397805 -1.341951 0.77937 -1.06066 1.06066 
C -0.77937 1.341951 -0.397805 1.5 0 1.5 
z
" style="stroke: #000000; stroke-width: 0.5"/>
    </defs>
    <g clip-path="url(#p8323b54e21)">
     <use xlink:href="#m2679cdcdc9" x="12.479264" y="18.078744" style="fill: #cce4ff; stroke: #000000; stroke-width: 0.5"/>
     <use xlink:href="#m2679cdcdc9" x="24.013371" y="23.01523" style="fill: #cce4ff; stroke: #000000; stroke-width: 0.5"/>
     <use xlink:href="#m2679cdcdc9" x="16.438415" y="9.328077" style="fill: #cce4ff; stroke: #000000; stroke-width: 0.5"/>
     <use xlink:href="#m2679cdcdc9" x="22.532144" y="13.967828" style="fill: #cce4ff; stroke: #000000; stroke-width: 0.5"/>
     <use xlink:href="#m2679cdcdc9" x="10.188271" y="9.948873" style="fill: #cce4ff; stroke: #000000; stroke-width: 0.5"/>
    </g>
   </g>
   <g id="patch_2">
    <path d="M 16.753846 29.7 
C 20.187206 29.7 23.480407 28.335912 25.908159 25.908159 
C 28.335912 23.480407 29.7 20.187206 29.7 16.753846 
C 29.7 13.320486 28.335912 10.027285 25.908159 7.599533 
C 23.480407 5.171781 20.187206 3.807692 16.753846 3.807692 
C 13.320486 3.807692 10.027285 5.171781 7.599533 7.599533 
C 5.171781 10.027285 3.807692 13.320486 3.807692 16.753846 
C 3.807692 20.187206 5.171781 23.480407 7.599533 25.908159 
C 10.027285 28.335912 13.320486 29.7 16.753846 29.7 
L 16.753846 29.7 
z
" clip-path="url(#p8323b54e21)" style="fill: none; stroke-dasharray: 7.4,3.2; stroke-dashoffset: 0; stroke: #000000; stroke-width: 2; stroke-linejoin: miter"/>
   </g>
   <g id="PathCollection_2">
    <defs>
     <path id="m8423fb5cde" d="M 0 -1.5 
L -1.5 1.5 
L 1.5 1.5 
z
" style="stroke: #000000; stroke-width: 0.5"/>
    </defs>
    <g clip-path="url(#p8323b54e21)">
     <use xlink:href="#m8423fb5cde" x="68.340666" y="11.412544" style="fill: #ffd700; stroke: #000000; stroke-width: 0.5"/>
     <use xlink:href="#m8423fb5cde" x="58.608168" y="19.204013" style="fill: #ffd700; stroke: #000000; stroke-width: 0.5"/>
     <use xlink:href="#m8423fb5cde" x="61.933741" y="9.349724" style="fill: #ffd700; stroke: #000000; stroke-width: 0.5"/>
     <use xlink:href="#m8423fb5cde" x="65.145685" y="19.876059" style="fill: #ffd700; stroke: #000000; stroke-width: 0.5"/>
     <use xlink:href="#m8423fb5cde" x="56.427715" y="12.245902" style="fill: #ffd700; stroke: #000000; stroke-width: 0.5"/>
    </g>
   </g>
   <g id="patch_3">
    <path d="M 62.446154 29.7 
C 65.879514 29.7 69.172715 28.335912 71.600467 25.908159 
C 74.028219 23.480407 75.392308 20.187206 75.392308 16.753846 
C 75.392308 13.320486 74.028219 10.027285 71.600467 7.599533 
C 69.172715 5.171781 65.879514 3.807692 62.446154 3.807692 
C 59.012794 3.807692 55.719593 5.171781 53.291841 7.599533 
C 50.864088 10.027285 49.5 13.320486 49.5 16.753846 
C 49.5 20.187206 50.864088 23.480407 53.291841 25.908159 
C 55.719593 28.335912 59.012794 29.7 62.446154 29.7 
L 62.446154 29.7 
z
" clip-path="url(#p8323b54e21)" style="fill: none; stroke-dasharray: 7.4,3.2; stroke-dashoffset: 0; stroke: #000000; stroke-width: 2; stroke-linejoin: miter"/>
   </g>
  </g>
 </g>
 <defs>
  <clipPath id="p8323b54e21">
   <rect x="0" y="0" width="79.2" height="33.507692"/>
  </clipPath>
 </defs>
</svg>
