<?xml version="1.0" encoding="utf-8" standalone="no"?>
<!DOCTYPE svg PUBLIC "-//W3C//DTD SVG 1.1//EN"
  "http://www.w3.org/Graphics/SVG/1.1/DTD/svg11.dtd">
<svg xmlns:xlink="http://www.w3.org/1999/xlink" width="230.4pt" height="57.6pt" viewBox="0 0 230.4 57.6" xmlns="http://www.w3.org/2000/svg" version="1.1">
 <metadata>
  <rdf:RDF xmlns:dc="http://purl.org/dc/elements/1.1/" xmlns:cc="http://creativecommons.org/ns#" xmlns:rdf="http://www.w3.org/1999/02/22-rdf-syntax-ns#">
   <cc:Work>
    <dc:type rdf:resource="http://purl.org/dc/dcmitype/StillImage"/>
    <dc:date>2026-01-22T23:21:04.994062</dc:date>
    <dc:format>image/svg+xml</dc:format>
    <dc:creator>
     <cc:Agent>
      <dc:title>Matplotlib v3.9.2, https://matplotlib.org/</dc:title>
     </cc:Agent>
    </dc:creator>
   </cc:Work>
  </rdf:RDF>
 </metadata>
 <defs>
  <style type="text/css">*{stroke-linejoin: round; stroke-linecap: butt}</style>
 </defs>
 <g id="figure_1">
  <g id="patch_1">
   <path d="M 0 57.6 
L 230.4 57.6 
L 230.4 -0 
L 0 -0 
L 0 57.6 
z
" style="fill: none"/>
  </g>
  <g id="axes_1">
   <g id="patch_2">
    <path d="M 0 57.6 
L 230.4 57.6 
L 230.4 0 
L 0 0 
L 0 57.6 
z
" style="fill: none"/>
   </g>
   <g id="QuadMesh_1">
    <path d="M 0 0 
L 57.6 0 
L 57.6 57.6 
L 0 57.6 
L 0 0 
" clip-path="url(#pbba708b2a2)" style="fill: #2070b4; stroke: #000000; stroke-width: 2"/>
    <path d="M 57.6 0 
L 115.2 0 
L 115.2 57.6 
L 57.6 57.6 
L 57.6 0 
" clip-path="url(#pbba708b2a2)" style="fill: #08306b; stroke: #000000; stroke-width: 2"/>
    <path d="M 115.2 0 
L 172.8 0 
L 172.8 57.6 
L 115.2 57.6 
L 115.2 0 
" clip-path="url(#pbba708b2a2)" style="fill: #6aaed6; stroke: #000000; stroke-width: 2"/>
    <path d="M 172.8 0 
L 230.4 0 
L 230.4 57.6 
L 172.8 57.6 
L 172.8 0 
" clip-path="url(#pbba708b2a2)" style="fill: #f7fbff; stroke: #000000; stroke-width: 2"/>
   </g>
   <g id="matplotlib.axis_1"/>
   <g id="matplotlib.axis_2"/>
   <g id="patch_3">
    <path d="M 0 57.6 
L 0 0 
" style="fill: none; stroke: #000000; stroke-width: 2; stroke-linejoin: miter; stroke-linecap: square"/>
   </g>
   <g id="patch_4">
    <path d="M 230.4 57.6 
L 230.4 0 
" style="fill: none; stroke: #000000; stroke-width: 2; stroke-linejoin: miter; stroke-linecap: square"/>
   </g>
   <g id="patch_5">
    <path d="M 0 57.6 
L 230.4 57.6 
" style="fill: none; stroke: #000000; stroke-width: 2; stroke-linejoin: miter; stroke-linecap: square"/>
   </g>
   <g id="patch_6">
    <path d="M 0 0 
L 230.4 0 
" style="fill: none; stroke: #000000; stroke-width: 2; stroke-linejoin: miter; stroke-linecap: square"/>
   </g>
  </g>
 </g>
 <defs>
  <clipPath id="pbba708b2a2">
   <rect x="0" y="0" width="230.4" height="57.6"/>
  </clipPath>
 </defs>
</svg>
