<?xml version="1.0" encoding="utf-8" standalone="no"?>
<!DOCTYPE svg PUBLIC "-//W3C//DTD SVG 1.1//EN"
  "http://www.w3.org/Graphics/SVG/1.1/DTD/svg11.dtd">
<svg xmlns:xlink="http://www.w3.org/1999/xlink" width="155.744pt" height="191.184pt" viewBox="0 0 155.744 191.184" xmlns="http://www.w3.org/2000/svg" version="1.1">
 <metadata>
  <rdf:RDF xmlns:dc="http://purl.org/dc/elements/1.1/" xmlns:cc="http://creativecommons.org/ns#" xmlns:rdf="http://www.w3.org/1999/02/22-rdf-syntax-ns#">
   <cc:Work>
    <dc:type rdf:resource="http://purl.org/dc/dcmitype/StillImage"/>
    <dc:date>2026-01-22T20:54:13.894700</dc:date>
    <dc:format>image/svg+xml</dc:format>
    <dc:creator>
     <cc:Agent>
      <dc:title>Matplotlib v3.9.2, https://matplotlib.org/</dc:title>
     </cc:Agent>
    </dc:creator>
   </cc:Work>
  </rdf:RDF>
 </metadata>
 <defs>
  <style type="text/css">*{stroke-linejoin: round; stroke-linecap: butt}</style>
 </defs>
 <g id="figure_1">
  <g id="patch_1">
   <path d="M 0 191.184 
L 155.744 191.184 
L 155.744 0 
L 0 0 
L 0 191.184 
z
" style="fill: none"/>
  </g>
  <g id="axes_1">
   <g id="patch_2">
    <path d="M 0 155.744 
L 155.744 155.744 
L 155.744 -0 
L 0 -0 
L 0 155.744 
z
" style="fill: none"/>
   </g>
   <g id="QuadMesh_1">
    <path d="M 0 -0 
L 38.936 -0 
L 38.936 38.936 
L 0 38.936 
L 0 -0 
" clip-path="url(#p66f47e7637)" style="fill: #08306b; stroke: #6699cc; stroke-width: 0.5"/>
    <path d="M 38.936 -0 
L 77.872 -0 
L 77.872 38.936 
L 38.936 38.936 
L 38.936 -0 
" clip-path="url(#p66f47e7637)" style="fill: #1b69af; stroke: #6699cc; stroke-width: 0.5"/>
    <path d="M 77.872 -0 
L 116.808 -0 
L 116.808 38.936 
L 77.872 38.936 
L 77.872 -0 
" clip-path="url(#p66f47e7637)" style="fill: #3787c0; stroke: #6699cc; stroke-width: 0.5"/>
    <path d="M 116.808 -0 
L 155.744 -0 
L 155.744 38.936 
L 116.808 38.936 
L 116.808 -0 
" clip-path="url(#p66f47e7637)" style="fill: #f7fbff; stroke: #6699cc; stroke-width: 0.5"/>
    <path d="M 0 38.936 
L 38.936 38.936 
L 38.936 77.872 
L 0 77.872 
L 0 38.936 
" clip-path="url(#p66f47e7637)" style="fill: #1b69af; stroke: #6699cc; stroke-width: 0.5"/>
    <path d="M 38.936 38.936 
L 77.872 38.936 
L 77.872 77.872 
L 38.936 77.872 
L 38.936 38.936 
" clip-path="url(#p66f47e7637)" style="fill: #08306b; stroke: #6699cc; stroke-width: 0.5"/>
    <path d="M 77.872 38.936 
L 116.808 38.936 
L 116.808 77.872 
L 77.872 77.872 
L 77.872 38.936 
" clip-path="url(#p66f47e7637)" style="fill: #1b69af; stroke: #6699cc; stroke-width: 0.5"/>
    <path d="M 116.808 38.936 
L 155.744 38.936 
L 155.744 77.872 
L 116.808 77.872 
L 116.808 38.936 
" clip-path="url(#p66f47e7637)" style="fill: #e1edf8; stroke: #6699cc; stroke-width: 0.5"/>
    <path d="M 0 77.872 
L 38.936 77.872 
L 38.936 116.808 
L 0 116.808 
L 0 77.872 
" clip-path="url(#p66f47e7637)" style="fill: #3787c0; stroke: #6699cc; stroke-width: 0.5"/>
    <path d="M 38.936 77.872 
L 77.872 77.872 
L 77.872 116.808 
L 38.936 116.808 
L 38.936 77.872 
" clip-path="url(#p66f47e7637)" style="fill: #1b69af; stroke: #6699cc; stroke-width: 0.5"/>
    <path d="M 77.872 77.872 
L 116.808 77.872 
L 116.808 116.808 
L 77.872 116.808 
L 77.872 77.872 
" clip-path="url(#p66f47e7637)" style="fill: #08306b; stroke: #6699cc; stroke-width: 0.5"/>
    <path d="M 116.808 77.872 
L 155.744 77.872 
L 155.744 116.808 
L 116.808 116.808 
L 116.808 77.872 
" clip-path="url(#p66f47e7637)" style="fill: #f7fbff; stroke: #6699cc; stroke-width: 0.5"/>
    <path d="M 0 116.808 
L 38.936 116.808 
L 38.936 155.744 
L 0 155.744 
L 0 116.808 
" clip-path="url(#p66f47e7637)" style="fill: #f7fbff; stroke: #6699cc; stroke-width: 0.5"/>
    <path d="M 38.936 116.808 
L 77.872 116.808 
L 77.872 155.744 
L 38.936 155.744 
L 38.936 116.808 
" clip-path="url(#p66f47e7637)" style="fill: #e1edf8; stroke: #6699cc; stroke-width: 0.5"/>
    <path d="M 77.872 116.808 
L 116.808 116.808 
L 116.808 155.744 
L 77.872 155.744 
L 77.872 116.808 
" clip-path="url(#p66f47e7637)" style="fill: #f7fbff; stroke: #6699cc; stroke-width: 0.5"/>
    <path d="M 116.808 116.808 
L 155.744 116.808 
L 155.744 155.744 
L 116.808 155.744 
L 116.808 116.808 
" clip-path="url(#p66f47e7637)" style="fill: #08306b; stroke: #6699cc; stroke-width: 0.5"/>
   </g>
   <g id="matplotlib.axis_1">
    <g id="text_1">
     <!-- $\mathbf{G}_j$ -->
     <g style="fill: #6699cc" transform="translate(65.152 183.744) scale(0.24 -0.24)">
      <defs>
       <path id="DejaVuSans-Bold-47" d="M 4781 347 
Q 4331 128 3847 18 
Q 3363 -91 2847 -91 
Q 1681 -91 1000 561 
Q 319 1213 319 2328 
Q 319 3456 1012 4103 
Q 1706 4750 2913 4750 
Q 3378 4750 3804 4662 
Q 4231 4575 4609 4403 
L 4609 3438 
Q 4219 3659 3833 3768 
Q 3447 3878 3059 3878 
Q 2341 3878 1952 3476 
Q 1563 3075 1563 2328 
Q 1563 1588 1938 1184 
Q 2313 781 3003 781 
Q 3191 781 3352 804 
Q 3513 828 3641 878 
L 3641 1784 
L 2906 1784 
L 2906 2591 
L 4781 2591 
L 4781 347 
z
" transform="scale(0.015625)"/>
       <path id="DejaVuSans-Oblique-6a" d="M 928 3500 
L 1503 3500 
L 813 -63 
L 809 -78 
Q 694 -675 544 -897 
Q 403 -1106 132 -1218 
Q -138 -1331 -506 -1331 
L -722 -1331 
L -628 -844 
L -481 -844 
Q -144 -844 -1 -703 
Q 141 -563 238 -63 
L 928 3500 
z
M 1197 4863 
L 1772 4863 
L 1631 4134 
L 1056 4134 
L 1197 4863 
z
" transform="scale(0.015625)"/>
      </defs>
      <use xlink:href="#DejaVuSans-Bold-47" transform="translate(0 0.78125)"/>
      <use xlink:href="#DejaVuSans-Oblique-6a" transform="translate(83.037109 -15.625) scale(0.7)"/>
     </g>
    </g>
   </g>
   <g id="matplotlib.axis_2"/>
   <g id="patch_3">
    <path d="M 0 155.744 
L 0 -0 
" style="fill: none; stroke: #6699cc; stroke-width: 0.5; stroke-linejoin: miter; stroke-linecap: square"/>
   </g>
   <g id="patch_4">
    <path d="M 155.744 155.744 
L 155.744 -0 
" style="fill: none; stroke: #6699cc; stroke-width: 0.5; stroke-linejoin: miter; stroke-linecap: square"/>
   </g>
   <g id="patch_5">
    <path d="M 0 155.744 
L 155.744 155.744 
" style="fill: none; stroke: #6699cc; stroke-width: 0.5; stroke-linejoin: miter; stroke-linecap: square"/>
   </g>
   <g id="patch_6">
    <path d="M 0 -0 
L 155.744 -0 
" style="fill: none; stroke: #6699cc; stroke-width: 0.5; stroke-linejoin: miter; stroke-linecap: square"/>
   </g>
  </g>
 </g>
 <defs>
  <clipPath id="p66f47e7637">
   <rect x="0" y="-0" width="155.744" height="155.744"/>
  </clipPath>
 </defs>
</svg>
