<?xml version="1.0" encoding="utf-8" standalone="no"?>
<!DOCTYPE svg PUBLIC "-//W3C//DTD SVG 1.1//EN"
  "http://www.w3.org/Graphics/SVG/1.1/DTD/svg11.dtd">
<svg xmlns:xlink="http://www.w3.org/1999/xlink" width="194.4pt" height="194.4pt" viewBox="0 0 194.4 194.4" xmlns="http://www.w3.org/2000/svg" version="1.1">
 <metadata>
  <rdf:RDF xmlns:dc="http://purl.org/dc/elements/1.1/" xmlns:cc="http://creativecommons.org/ns#" xmlns:rdf="http://www.w3.org/1999/02/22-rdf-syntax-ns#">
   <cc:Work>
    <dc:type rdf:resource="http://purl.org/dc/dcmitype/StillImage"/>
    <dc:date>2026-01-22T21:54:38.235898</dc:date>
    <dc:format>image/svg+xml</dc:format>
    <dc:creator>
     <cc:Agent>
      <dc:title>Matplotlib v3.9.2, https://matplotlib.org/</dc:title>
     </cc:Agent>
    </dc:creator>
   </cc:Work>
  </rdf:RDF>
 </metadata>
 <defs>
  <style type="text/css">*{stroke-linejoin: round; stroke-linecap: butt}</style>
 </defs>
 <g id="figure_1">
  <g id="patch_1">
   <path d="M 0 194.4 
L 194.4 194.4 
L 194.4 0 
L 0 0 
L 0 194.4 
z
" style="fill: none"/>
  </g>
  <g id="axes_1">
   <g id="patch_2">
    <path d="M 0 194.4 
L 194.4 194.4 
L 194.4 -0 
L 0 -0 
L 0 194.4 
z
" style="fill: none"/>
   </g>
   <g id="QuadMesh_1">
    <path d="M 0 -0 
L 48.6 -0 
L 48.6 48.6 
L 0 48.6 
L 0 -0 
" clip-path="url(#p323069dbde)" style="fill: #f7fbff; stroke: #000000; stroke-width: 2"/>
    <path d="M 48.6 -0 
L 97.2 -0 
L 97.2 48.6 
L 48.6 48.6 
L 48.6 -0 
" clip-path="url(#p323069dbde)" style="fill: #ccdff1; stroke: #000000; stroke-width: 2"/>
    <path d="M 97.2 -0 
L 145.8 -0 
L 145.8 48.6 
L 97.2 48.6 
L 97.2 -0 
" clip-path="url(#p323069dbde)" style="fill: #abd0e6; stroke: #000000; stroke-width: 2"/>
    <path d="M 145.8 -0 
L 194.4 -0 
L 194.4 48.6 
L 145.8 48.6 
L 145.8 -0 
" clip-path="url(#p323069dbde)" style="fill: #08306b; stroke: #000000; stroke-width: 2"/>
    <path d="M 0 48.6 
L 48.6 48.6 
L 48.6 97.2 
L 0 97.2 
L 0 48.6 
" clip-path="url(#p323069dbde)" style="fill: #ccdff1; stroke: #000000; stroke-width: 2"/>
    <path d="M 48.6 48.6 
L 97.2 48.6 
L 97.2 97.2 
L 48.6 97.2 
L 48.6 48.6 
" clip-path="url(#p323069dbde)" style="fill: #f7fbff; stroke: #000000; stroke-width: 2"/>
    <path d="M 97.2 48.6 
L 145.8 48.6 
L 145.8 97.2 
L 97.2 97.2 
L 97.2 48.6 
" clip-path="url(#p323069dbde)" style="fill: #ccdff1; stroke: #000000; stroke-width: 2"/>
    <path d="M 145.8 48.6 
L 194.4 48.6 
L 194.4 97.2 
L 145.8 97.2 
L 145.8 48.6 
" clip-path="url(#p323069dbde)" style="fill: #084d96; stroke: #000000; stroke-width: 2"/>
    <path d="M 0 97.2 
L 48.6 97.2 
L 48.6 145.8 
L 0 145.8 
L 0 97.2 
" clip-path="url(#p323069dbde)" style="fill: #abd0e6; stroke: #000000; stroke-width: 2"/>
    <path d="M 48.6 97.2 
L 97.2 97.2 
L 97.2 145.8 
L 48.6 145.8 
L 48.6 97.2 
" clip-path="url(#p323069dbde)" style="fill: #ccdff1; stroke: #000000; stroke-width: 2"/>
    <path d="M 97.2 97.2 
L 145.8 97.2 
L 145.8 145.8 
L 97.2 145.8 
L 97.2 97.2 
" clip-path="url(#p323069dbde)" style="fill: #f7fbff; stroke: #000000; stroke-width: 2"/>
    <path d="M 145.8 97.2 
L 194.4 97.2 
L 194.4 145.8 
L 145.8 145.8 
L 145.8 97.2 
" clip-path="url(#p323069dbde)" style="fill: #08306b; stroke: #000000; stroke-width: 2"/>
    <path d="M 0 145.8 
L 48.6 145.8 
L 48.6 194.4 
L 0 194.4 
L 0 145.8 
" clip-path="url(#p323069dbde)" style="fill: #08306b; stroke: #000000; stroke-width: 2"/>
    <path d="M 48.6 145.8 
L 97.2 145.8 
L 97.2 194.4 
L 48.6 194.4 
L 48.6 145.8 
" clip-path="url(#p323069dbde)" style="fill: #084d96; stroke: #000000; stroke-width: 2"/>
    <path d="M 97.2 145.8 
L 145.8 145.8 
L 145.8 194.4 
L 97.2 194.4 
L 97.2 145.8 
" clip-path="url(#p323069dbde)" style="fill: #08306b; stroke: #000000; stroke-width: 2"/>
    <path d="M 145.8 145.8 
L 194.4 145.8 
L 194.4 194.4 
L 145.8 194.4 
L 145.8 145.8 
" clip-path="url(#p323069dbde)" style="fill: #f7fbff; stroke: #000000; stroke-width: 2"/>
   </g>
   <g id="matplotlib.axis_1"/>
   <g id="matplotlib.axis_2"/>
   <g id="patch_3">
    <path d="M 0 194.4 
L 0 -0 
" style="fill: none; stroke: #000000; stroke-width: 2; stroke-linejoin: miter; stroke-linecap: square"/>
   </g>
   <g id="patch_4">
    <path d="M 194.4 194.4 
L 194.4 -0 
" style="fill: none; stroke: #000000; stroke-width: 2; stroke-linejoin: miter; stroke-linecap: square"/>
   </g>
   <g id="patch_5">
    <path d="M 0 194.4 
L 194.4 194.4 
" style="fill: none; stroke: #000000; stroke-width: 2; stroke-linejoin: miter; stroke-linecap: square"/>
   </g>
   <g id="patch_6">
    <path d="M 0 -0 
L 194.4 -0 
" style="fill: none; stroke: #000000; stroke-width: 2; stroke-linejoin: miter; stroke-linecap: square"/>
   </g>
  </g>
 </g>
 <defs>
  <clipPath id="p323069dbde">
   <rect x="0" y="-0" width="194.4" height="194.4"/>
  </clipPath>
 </defs>
</svg>
