<?xml version="1.0" encoding="utf-8" standalone="no"?>
<!DOCTYPE svg PUBLIC "-//W3C//DTD SVG 1.1//EN"
  "http://www.w3.org/Graphics/SVG/1.1/DTD/svg11.dtd">
<svg xmlns:xlink="http://www.w3.org/1999/xlink" width="79.2pt" height="19.8pt" viewBox="0 0 79.2 19.8" xmlns="http://www.w3.org/2000/svg" version="1.1">
 <metadata>
  <rdf:RDF xmlns:dc="http://purl.org/dc/elements/1.1/" xmlns:cc="http://creativecommons.org/ns#" xmlns:rdf="http://www.w3.org/1999/02/22-rdf-syntax-ns#">
   <cc:Work>
    <dc:type rdf:resource="http://purl.org/dc/dcmitype/StillImage"/>
    <dc:date>2026-01-23T23:01:34.817077</dc:date>
    <dc:format>image/svg+xml</dc:format>
    <dc:creator>
     <cc:Agent>
      <dc:title>Matplotlib v3.9.2, https://matplotlib.org/</dc:title>
     </cc:Agent>
    </dc:creator>
   </cc:Work>
  </rdf:RDF>
 </metadata>
 <defs>
  <style type="text/css">*{stroke-linejoin: round; stroke-linecap: butt}</style>
 </defs>
 <g id="figure_1">
  <g id="patch_1">
   <path d="M 0 19.8 
L 79.2 19.8 
L 79.2 0 
L 0 0 
L 0 19.8 
z
" style="fill: none"/>
  </g>
  <g id="axes_1">
   <g id="patch_2">
    <path d="M 0 19.8 
L 79.2 19.8 
L 79.2 -0 
L 0 -0 
L 0 19.8 
z
" style="fill: none"/>
   </g>
   <g id="QuadMesh_1">
    <path d="M 0 -0 
L 19.8 -0 
L 19.8 19.8 
L 0 19.8 
L 0 -0 
" clip-path="url(#pdd35a440d3)" style="fill: #9dcae1; stroke: #000000; stroke-width: 2"/>
    <path d="M 19.8 -0 
L 39.6 -0 
L 39.6 19.8 
L 19.8 19.8 
L 19.8 -0 
" clip-path="url(#pdd35a440d3)" style="fill: #08306b; stroke: #000000; stroke-width: 2"/>
    <path d="M 39.6 -0 
L 59.4 -0 
L 59.4 19.8 
L 39.6 19.8 
L 39.6 -0 
" clip-path="url(#pdd35a440d3)" style="fill: #4191c6; stroke: #000000; stroke-width: 2"/>
    <path d="M 59.4 -0 
L 79.2 -0 
L 79.2 19.8 
L 59.4 19.8 
L 59.4 -0 
" clip-path="url(#pdd35a440d3)" style="fill: #f7fbff; stroke: #000000; stroke-width: 2"/>
   </g>
   <g id="matplotlib.axis_1"/>
   <g id="matplotlib.axis_2"/>
   <g id="patch_3">
    <path d="M 0 19.8 
L 0 -0 
" style="fill: none; stroke: #000000; stroke-width: 2; stroke-linejoin: miter; stroke-linecap: square"/>
   </g>
   <g id="patch_4">
    <path d="M 79.2 19.8 
L 79.2 -0 
" style="fill: none; stroke: #000000; stroke-width: 2; stroke-linejoin: miter; stroke-linecap: square"/>
   </g>
   <g id="patch_5">
    <path d="M 0 19.8 
L 79.2 19.8 
" style="fill: none; stroke: #000000; stroke-width: 2; stroke-linejoin: miter; stroke-linecap: square"/>
   </g>
   <g id="patch_6">
    <path d="M 0 -0 
L 79.2 -0 
" style="fill: none; stroke: #000000; stroke-width: 2; stroke-linejoin: miter; stroke-linecap: square"/>
   </g>
  </g>
 </g>
 <defs>
  <clipPath id="pdd35a440d3">
   <rect x="0" y="-0" width="79.2" height="19.8"/>
  </clipPath>
 </defs>
</svg>
