<?xml version="1.0" encoding="utf-8" standalone="no"?>
<!DOCTYPE svg PUBLIC "-//W3C//DTD SVG 1.1//EN"
  "http://www.w3.org/Graphics/SVG/1.1/DTD/svg11.dtd">
<svg xmlns:xlink="http://www.w3.org/1999/xlink" width="72pt" height="72pt" viewBox="0 0 72 72" xmlns="http://www.w3.org/2000/svg" version="1.1">
 <metadata>
  <rdf:RDF xmlns:dc="http://purl.org/dc/elements/1.1/" xmlns:cc="http://creativecommons.org/ns#" xmlns:rdf="http://www.w3.org/1999/02/22-rdf-syntax-ns#">
   <cc:Work>
    <dc:type rdf:resource="http://purl.org/dc/dcmitype/StillImage"/>
    <dc:date>2026-01-23T23:01:34.759558</dc:date>
    <dc:format>image/svg+xml</dc:format>
    <dc:creator>
     <cc:Agent>
      <dc:title>Matplotlib v3.9.2, https://matplotlib.org/</dc:title>
     </cc:Agent>
    </dc:creator>
   </cc:Work>
  </rdf:RDF>
 </metadata>
 <defs>
  <style type="text/css">*{stroke-linejoin: round; stroke-linecap: butt}</style>
 </defs>
 <g id="figure_1">
  <g id="patch_1">
   <path d="M 0 72 
L 72 72 
L 72 -0 
L 0 -0 
L 0 72 
z
" style="fill: none"/>
  </g>
  <g id="axes_1">
   <g id="patch_2">
    <path d="M 0 72 
L 72 72 
L 72 0 
L 0 0 
L 0 72 
z
" style="fill: none"/>
   </g>
   <g id="QuadMesh_1">
    <path d="M 0 0 
L 18 0 
L 18 18 
L 0 18 
L 0 0 
" clip-path="url(#p510eacb2e3)" style="fill: #f7fbff; stroke: #000000; stroke-width: 2"/>
    <path d="M 18 0 
L 36 0 
L 36 18 
L 18 18 
L 18 0 
" clip-path="url(#p510eacb2e3)" style="fill: #c6dbef; stroke: #000000; stroke-width: 2"/>
    <path d="M 36 0 
L 54 0 
L 54 18 
L 36 18 
L 36 0 
" clip-path="url(#p510eacb2e3)" style="fill: #6aaed6; stroke: #000000; stroke-width: 2"/>
    <path d="M 54 0 
L 72 0 
L 72 18 
L 54 18 
L 54 0 
" clip-path="url(#p510eacb2e3)" style="fill: #08306b; stroke: #000000; stroke-width: 2"/>
    <path d="M 0 18 
L 18 18 
L 18 36 
L 0 36 
L 0 18 
" clip-path="url(#p510eacb2e3)" style="fill: #c6dbef; stroke: #000000; stroke-width: 2"/>
    <path d="M 18 18 
L 36 18 
L 36 36 
L 18 36 
L 18 18 
" clip-path="url(#p510eacb2e3)" style="fill: #f7fbff; stroke: #000000; stroke-width: 2"/>
    <path d="M 36 18 
L 54 18 
L 54 36 
L 36 36 
L 36 18 
" clip-path="url(#p510eacb2e3)" style="fill: #deebf7; stroke: #000000; stroke-width: 2"/>
    <path d="M 54 18 
L 72 18 
L 72 36 
L 54 36 
L 54 18 
" clip-path="url(#p510eacb2e3)" style="fill: #9dcae1; stroke: #000000; stroke-width: 2"/>
    <path d="M 0 36 
L 18 36 
L 18 54 
L 0 54 
L 0 36 
" clip-path="url(#p510eacb2e3)" style="fill: #6aaed6; stroke: #000000; stroke-width: 2"/>
    <path d="M 18 36 
L 36 36 
L 36 54 
L 18 54 
L 18 36 
" clip-path="url(#p510eacb2e3)" style="fill: #deebf7; stroke: #000000; stroke-width: 2"/>
    <path d="M 36 36 
L 54 36 
L 54 54 
L 36 54 
L 36 36 
" clip-path="url(#p510eacb2e3)" style="fill: #f7fbff; stroke: #000000; stroke-width: 2"/>
    <path d="M 54 36 
L 72 36 
L 72 54 
L 54 54 
L 54 36 
" clip-path="url(#p510eacb2e3)" style="fill: #08509b; stroke: #000000; stroke-width: 2"/>
    <path d="M 0 54 
L 18 54 
L 18 72 
L 0 72 
L 0 54 
" clip-path="url(#p510eacb2e3)" style="fill: #08306b; stroke: #000000; stroke-width: 2"/>
    <path d="M 18 54 
L 36 54 
L 36 72 
L 18 72 
L 18 54 
" clip-path="url(#p510eacb2e3)" style="fill: #9dcae1; stroke: #000000; stroke-width: 2"/>
    <path d="M 36 54 
L 54 54 
L 54 72 
L 36 72 
L 36 54 
" clip-path="url(#p510eacb2e3)" style="fill: #08509b; stroke: #000000; stroke-width: 2"/>
    <path d="M 54 54 
L 72 54 
L 72 72 
L 54 72 
L 54 54 
" clip-path="url(#p510eacb2e3)" style="fill: #f7fbff; stroke: #000000; stroke-width: 2"/>
   </g>
   <g id="matplotlib.axis_1"/>
   <g id="matplotlib.axis_2"/>
   <g id="patch_3">
    <path d="M 0 72 
L 0 0 
" style="fill: none; stroke: #000000; stroke-width: 4; stroke-linejoin: miter; stroke-linecap: square"/>
   </g>
   <g id="patch_4">
    <path d="M 72 72 
L 72 0 
" style="fill: none; stroke: #000000; stroke-width: 4; stroke-linejoin: miter; stroke-linecap: square"/>
   </g>
   <g id="patch_5">
    <path d="M 0 72 
L 72 72 
" style="fill: none; stroke: #000000; stroke-width: 4; stroke-linejoin: miter; stroke-linecap: square"/>
   </g>
   <g id="patch_6">
    <path d="M 0 0 
L 72 0 
" style="fill: none; stroke: #000000; stroke-width: 4; stroke-linejoin: miter; stroke-linecap: square"/>
   </g>
  </g>
 </g>
 <defs>
  <clipPath id="p510eacb2e3">
   <rect x="0" y="0" width="72" height="72"/>
  </clipPath>
 </defs>
</svg>
